<?xml version="1.0" encoding="UTF-8"?>
<!DOCTYPE svg PUBLIC "-//W3C//DTD SVG 1.0//EN" "http://www.w3.org/TR/2001/REC-SVG-20010904/DTD/svg10.dtd">
<!-- Creator: CorelDRAW 2017 -->
<svg xmlns="http://www.w3.org/2000/svg" xml:space="preserve" width="356px" height="200px" version="1.0" shape-rendering="geometricPrecision" text-rendering="geometricPrecision" image-rendering="optimizeQuality" fill-rule="evenodd" clip-rule="evenodd"
viewBox="0 0 35600 20025"
 xmlns:xlink="http://www.w3.org/1999/xlink">
 <g id="Layer_x0020_1">
  <metadata id="CorelCorpID_0Corel-Layer"/>
  <g id="_2047725706912">
   <path fill="#E6E7E8" d="M0 0l35600 0 0 20025 -35600 0 0 -20025z"/>
   <path fill="#373435" fill-opacity="0.031373" d="M2102 17538c67,103 111,202 155,311 31,64 48,183 198,183 44,0 107,-14 163,-45 63,-33 111,-82 135,-159l61 -201 145 -72 10 10c-19,76 -24,148 -24,206 0,169 145,233 262,233 68,0 128,-33 128,-95 0,-81 -34,-216 -78,-338 68,-68 136,-136 214,-191l12 6c34,144 53,286 53,381 0,92 -41,195 -75,263 -70,132 -194,237 -344,237 -114,0 -240,-57 -327,-163l-5 0c-83,101 -209,194 -412,194l-63 0c-10,134 -39,229 -82,313 -122,237 -480,404 -817,404 -470,0 -705,-272 -705,-632 0,-223 72,-431 184,-577l92 37c-70,134 -116,261 -116,385 0,338 274,499 591,499 293,0 657,-188 722,-404 -24,-237 -114,-348 -250,-565 42,-72 95,-144 160,-220l13 0zm5414 -1273c99,62 196,136 290,221 -53,74 -118,142 -201,201 -94,-76 -189,-142 -286,-212 66,-74 131,-146 197,-210zm51 925c-160,0 -291,105 -291,183 0,167 320,219 702,217 -48,-196 -215,-400 -411,-400zm-359 894c208,0 390,-6 528,-41 155,-39 286,-118 286,-171 0,-15 0,-31 -5,-46 -87,9 -186,9 -274,9 -281,0 -496,-64 -581,-223 -22,-43 -36,-93 -36,-148 0,-153 65,-303 181,-406 97,-84 204,-138 313,-138 196,0 354,159 463,408 60,136 101,292 101,490 0,132 -36,243 -118,326 -153,148 -434,204 -865,204l-197 0 0 0 -51 0c-106,0 -184,-19 -244,-66l-10 0c2,24 5,49 5,72 0,97 -32,220 -97,319 -192,286 -400,410 -579,410 -182,0 -405,-70 -606,-161l36 -70c66,27 155,45 279,45 325,0 751,-313 804,-617 -12,-25 -33,-58 -65,-93 -94,-113 -155,-208 -211,-307 49,-95 92,-171 134,-239l16 -2c139,282 265,445 546,445l43 0 0 0 204 0zm-1406 299c24,-130 26,-276 26,-412l0 -202c0,-377 -48,-925 -87,-1281 68,-75 163,-161 238,-219l21 6c51,449 64,971 64,1450 0,126 -5,250 -17,340 -8,114 -73,200 -214,332l-31 -14zm-1447 -596c7,177 94,317 397,317 189,0 349,-49 526,-133 31,-15 48,-33 48,-50 0,-111 -84,-257 -228,-391 -138,-126 -322,-237 -494,-311 -58,-25 -77,-52 -77,-76 0,-52 68,-159 123,-235l20 -2c196,103 416,255 579,426 148,157 240,315 240,488 0,128 -39,250 -102,361 -216,109 -446,191 -674,191 -276,0 -465,-129 -465,-434 0,-33 0,-85 12,-151l95 0zm-500 -502l172 278c63,103 121,214 121,391l0 227c0,183 -117,379 -306,572 -147,132 -278,188 -399,188 -180,0 -386,-56 -623,-159l26 -70c76,21 163,37 270,37 341,-2 690,-251 850,-556 19,-35 27,-68 27,-91 0,-35 -20,-74 -34,-109 -87,-165 -184,-315 -291,-453 56,-88 111,-173 172,-257l15 2z"/>
   <path fill="#373435" fill-opacity="0.078431" d="M18217 3335l-620 518 0 79 1183 -990 0 2093 1478 -1237 -85 83 -74 93 -65 104 -55 115 -45 127 -34 137 -25 148 -15 159 -5 170 2 83 863 -723 117 -60 137 -36 159 -12 158 12 137 36 116 60 95 85 74 108 52 132 32 157 6 109 1402 -1173 -78 66 -70 77 -61 86 -54 96 -45 107 -36 117 -29 127 -21 137 -12 147 -4 158 3 107 836 -700 105 -57 124 -35 133 -10 630 -527 0 439 0 0 -241 202 63 57 65 96 46 118 27 140 10 161 -3 80 -6 75 -10 72 -15 68 -19 64 -23 60 -27 55 -31 52 -43 54 -47 47 -762 638 77 12 128 6 128 -8 18 -4 635 -531 -2 120 -5 110 -7 100 -11 89 -14 80 -18 70 -20 59 -23 50 -42 61 -51 53 -738 618 90 15 145 14 152 5 130 -4 123 -11 116 -19 108 -26 102 -34 94 -41 87 -49 79 -56 -3894 3260 16 11 237 176 229 186 221 195 214 205 206 214 199 224 191 234 183 243 175 253 168 262 19 32 438 -366 -54 48 -382 320 140 238 -139 279 -147 270 -156 260 -165 250 -175 241 -183 231 -192 221 -30 31 1456 -1219 52 43 57 38 59 33 63 27 66 22 68 16 70 10 72 4 117 -10 608 -509 2626 0 -8705 7287 -2456 0 -160 0 -10 0 -387 0 -371 0 -84 0 -944 0 -425 0 -3 0 -3229 0 -626 0 -36 0 -297 0 -3 0 -537 0 -40 0 -188 0 -3 0 -732 0 -8 0 -10 0 -374 0 -213 0 -167 0 -204 0 -154 0 -55 0 -96 0 -339 0 -208 0 -402 0 -467 0 -913 0 -7 0 -816 0 -204 0 -101 0 -261 0 -540 0 -113 0 -251 0 -280 0 -311 0 -54 0 -287 0 -399 0 -401 0 -357 0 -96 0 0 -28 0 -547 0 -79 0 -279 0 -129 0 -101 0 -55 0 -223 0 -246 0 -41 0 -103 0 -4 0 -84 0 -98 0 -279 0 -66 0 -142 0 -286 0 -8 0 -512 0 -10 0 -142 0 -611 0 -128 0 -365 0 -321 0 -1606 0 -1763 10373 -8683 414 1417 1693 -1417 -577 2087 1678 -1404 -93 87 -83 100 -69 99 -59 107 -50 114 -41 122 -32 130 -23 136 -13 145 -5 151 0 14 828 -692 45 -35 47 -30 49 -25 52 -21 53 -16 55 -12 58 -7 59 -2 65 2 62 6 59 11 56 15 53 19 51 23 48 27 44 32 35 30 826 -691 0 806 911 -763 -90 95 -75 122 -40 96 1258 -1053 -24 21 -20 24 -16 27 -13 32 -10 34 -5 39 -2 41 6 64 19 56 30 47 43 39 55 30 67 21 80 13 92 4 91 -4 80 -13 67 -21 55 -30z"/>
   <g>
    <g>
     <path fill="#0077BD" fill-rule="nonzero" d="M8275 10308l5883 0c-342,-705 -841,-1335 -1471,-1836l307 -386c692,551 1240,1244 1615,2022 375,778 577,1639 577,2522 0,884 -202,1745 -577,2523 -375,777 -923,1471 -1615,2021l-307 -386c634,-504 1135,-1139 1478,-1850l5 -11 -5895 0 0 -494 6102 0c206,-571 315,-1180 315,-1803 0,-632 -112,-1250 -324,-1828l-6093 0 0 -494zm5738 -2240c2322,-193 4290,67 5901,780 1477,653 2652,1685 3525,3094 138,-135 326,-217 534,-217 337,0 623,217 725,518l2626 0 0 495 -2626 0c-102,301 -388,519 -725,519 -194,0 -372,-73 -507,-193 -764,1443 -1883,2506 -3355,3190 -1611,749 -3643,1038 -6094,868l-578 -40 429 -388c578,-525 1032,-1159 1341,-1857 309,-698 474,-1461 474,-2242 0,-781 -165,-1543 -474,-2242 -309,-698 -763,-1332 -1341,-1856l-421 -382 566 -47z"/>
     <path fill="#71D0F6" fill-rule="nonzero" d="M19715 9300c-1410,-624 -3117,-882 -5121,-776 444,485 804,1036 1067,1630 337,761 517,1591 517,2441 0,849 -180,1680 -517,2441 -262,591 -620,1141 -1062,1624 2122,88 3891,-196 5305,-853 1482,-689 2579,-1791 3293,-3307 -835,-1476 -1995,-2543 -3482,-3200z"/>
    </g>
    <path fill="#575757" fill-rule="nonzero" d="M13178 3086l-969 3257 -883 0 -953 -3257 707 0 696 2506 12 0 692 -2506 698 0zm2262 1779c0,64 -7,175 -22,335l-1674 0c9,464 254,695 737,695 197,0 360,-45 490,-134 113,-76 224,-203 334,-383l0 578c-249,311 -554,466 -913,466 -432,0 -758,-139 -979,-418 -200,-252 -300,-600 -300,-1044 0,-414 97,-749 292,-1004 211,-285 517,-427 917,-427 746,0 1118,446 1118,1336zm-443 -192c-6,-171 -73,-306 -200,-404 -115,-90 -262,-135 -438,-135 -161,0 -301,49 -418,148 -117,98 -183,229 -197,391l1253 0zm2270 -265c-87,-131 -212,-196 -374,-196 -215,0 -373,105 -474,313 -73,157 -109,357 -109,601l0 1217 -652 0 0 -2735 604 0 0 787 0 0c70,-577 289,-866 658,-866 138,0 253,38 347,114l0 765zm1048 -1279c0,183 -130,274 -391,274 -261,0 -392,-91 -392,-274 0,-116 39,-194 118,-235 52,-29 143,-43 274,-43 130,0 221,14 274,43 78,41 117,119 117,235zm-65 3214l-653 0 0 -2735c84,49 196,74 335,74 119,0 225,-25 318,-74l0 2735zm1183 0l-653 0 0 -3401 653 0 0 3401zm2975 -1409c0,453 -99,806 -296,1062 -217,284 -545,426 -983,426 -438,0 -765,-142 -983,-426 -194,-256 -291,-609 -291,-1062 0,-936 424,-1405 1274,-1405 853,0 1279,469 1279,1405zm-600 22c0,-513 -225,-770 -675,-770 -452,0 -678,257 -678,770 0,609 225,913 674,913 452,0 679,-304 679,-913zm3418 1022c0,348 -111,610 -335,787 -203,160 -482,240 -839,240 -415,0 -757,-100 -1027,-301l0 -539c211,223 499,335 864,335 306,0 509,-87 607,-261 66,-119 100,-345 100,-678l0 0c-169,362 -429,543 -781,543 -352,0 -616,-130 -793,-391 -152,-223 -227,-518 -227,-883 0,-867 349,-1301 1049,-1301 428,0 689,173 782,518l0 0 0 -439 600 0 0 2370zm-630 -1157c0,-458 -197,-687 -590,-687 -407,0 -611,244 -611,731 0,203 48,368 143,496 110,144 262,217 455,217 205,0 361,-77 469,-231 89,-133 134,-308 134,-526z"/>
   </g>
  </g>
 </g>
</svg>
