<svg xmlns="http://www.w3.org/2000/svg" viewBox="0 0 211.06 35.74"><defs><style>.cls-1{fill:#4d4d4f;}.cls-2{fill:#ff671d;}</style></defs><title>Asset 1</title><g id="Layer_2" data-name="Layer 2"><g id="Layer_1-2" data-name="Layer 1"><path class="cls-1" d="M54.69,18.7l.06,2.74a5.42,5.42,0,0,1,5.12-2.9,6,6,0,0,1,3.3.9l-.68,1.25A5,5,0,0,0,59.87,20a5.13,5.13,0,0,0-5.09,5.15v9H53.25V18.7Z"/><path class="cls-1" d="M65.34,26.43a7.83,7.83,0,1,1,15.66,0,7.83,7.83,0,1,1-15.66,0m14.16,0a6.33,6.33,0,1,0-12.66,0,6.33,6.33,0,1,0,12.66,0"/><path class="cls-1" d="M97.64,32A7.87,7.87,0,0,1,92,34.26a7.6,7.6,0,0,1-7.92-7.86A7.53,7.53,0,0,1,92,18.54a8,8,0,0,1,5.61,2.31l-1,1A6.58,6.58,0,0,0,92,20a6.1,6.1,0,0,0-6.42,6.43A6.09,6.09,0,0,0,92,32.82a6.53,6.53,0,0,0,4.59-1.9Z"/><path class="cls-1" d="M112.49,21.47a6.6,6.6,0,0,0-4.8-1.62c-2.4,0-4.71.87-4.65,2.84s2.74,2.46,4.68,2.8c2.74.47,6.52.94,6.36,4.53-.09,3.4-3.62,4.3-6.33,4.3s-5.4-1-6.74-3.09l1.13-1a6.79,6.79,0,0,0,5.64,2.62c1.87,0,4.71-.49,4.8-2.93.06-2.21-2.49-2.65-5-3.05-3-.5-6-1.06-6-4.15s3-4.34,6.12-4.3a8.1,8.1,0,0,1,5.74,2Z"/><path class="cls-1" d="M131.22,31.92a7.85,7.85,0,0,1-5.61,2.31,7.6,7.6,0,0,1-7.92-7.86,7.53,7.53,0,0,1,7.92-7.86,8,8,0,0,1,5.61,2.31l-1,1a6.58,6.58,0,0,0-4.62-1.84,6.1,6.1,0,0,0-6.42,6.43,6.09,6.09,0,0,0,6.42,6.42,6.53,6.53,0,0,0,4.59-1.9Z"/><path class="cls-1" d="M137.57,14.58a1.23,1.23,0,0,1-2.46,0,1.23,1.23,0,0,1,2.46,0m-2,19.49h1.53V18.6h-1.53Z"/><path class="cls-1" d="M141.44,26.37a7.75,7.75,0,0,1,7.83-8c4.34,0,8.2,2.66,7.61,8.67H143a6.06,6.06,0,0,0,6.27,5.71,7.23,7.23,0,0,0,5.55-2.34l1.09.88a8.47,8.47,0,0,1-6.64,3,7.56,7.56,0,0,1-7.83-7.92m14.07-.63c0-3.8-2.53-5.92-6.24-5.92A6.16,6.16,0,0,0,143,25.74Z"/><path class="cls-1" d="M163,18.66v2.75a6.14,6.14,0,0,1,5.48-3c4.12,0,7,2.53,7,6.8v8.89H174V25.21c0-3.49-2.15-5.36-5.49-5.33a5.35,5.35,0,0,0-5.39,5.61v8.58h-1.53V18.66Z"/><path class="cls-1" d="M193,31.92a7.89,7.89,0,0,1-5.61,2.31,7.6,7.6,0,0,1-7.92-7.86,7.53,7.53,0,0,1,7.92-7.86A8,8,0,0,1,193,20.82l-1,1a6.54,6.54,0,0,0-4.61-1.84,6.11,6.11,0,0,0-6.43,6.43,6.1,6.1,0,0,0,6.43,6.42,6.49,6.49,0,0,0,4.58-1.9Z"/><path class="cls-1" d="M195.56,26.37a7.75,7.75,0,0,1,7.83-8c4.34,0,8.2,2.66,7.61,8.67H197.12a6.06,6.06,0,0,0,6.27,5.71,7.23,7.23,0,0,0,5.55-2.34l1.09.88a8.47,8.47,0,0,1-6.64,3,7.56,7.56,0,0,1-7.83-7.92m14.07-.63c0-3.8-2.53-5.92-6.24-5.92a6.16,6.16,0,0,0-6.27,5.92Z"/><path class="cls-2" d="M35.74,35.74H0V0H17.87a.81.81,0,0,1,.81.81.82.82,0,0,1-.81.82H1.63V34.12H34.12V17.87a.81.81,0,1,1,1.62,0Z"/></g></g></svg>